nColumns=19
nRows=58
DataType=double
version=3
OpenSimVersion=4.1
endheader
time	ground_force_1_vx	ground_force_1_vy	ground_force_1_vz	ground_force_1_px	ground_force_1_py	ground_force_1_pz	ground_force_1_mx	ground_force_1_my	ground_force_1_mz	ground_force_2_vx	ground_force_2_vy	ground_force_2_vz	ground_force_2_px	ground_force_2_py	ground_force_2_pz	ground_force_2_mx	ground_force_2_my	ground_force_2_mz
0	-5.92757	105.896	7.1046	0.0921029	0.006	-0.254383	0	0.193951	0	0	0	0	0.71082	0	-0.282997	0	0	0
0.01	-10.5795	139.921	7.67954	0.0959409	0.006	-0.253657	0	0.150456	0	0	0	0	0.71082	0	-0.282997	0	0	0
0.02	-16.4061	177.998	7.98846	0.100001	0.006	-0.252848	0	0.115248	0	0	0	0	0.71082	0	-0.282997	0	0	0
0.03	-23.4082	219.11	7.90224	0.103823	0.006	-0.252047	0	0.092442	0	0	0	0	0.71082	0	-0.282997	0	0	0
0.04	-31.3356	262.102	7.30167	0.107556	0.006	-0.251224	0	0.087104	0	0	0	0	0.71082	0	-0.282997	0	0	0
0.05	-39.807	305.819	6.09792	0.111274	0.006	-0.250359	0	0.104311	0	0	0	0	0.71082	0	-0.282997	0	0	0
0.06	-48.4169	349.081	4.26592	0.115006	0.006	-0.24945	0	0.148195	0	0	0	0	0.71082	0	-0.282997	0	0	0
0.07	-56.7558	390.741	1.857	0.118756	0.006	-0.248504	0	0.224097	0	0	0	0	0.71082	0	-0.282997	0	0	0
0.08	-64.4483	429.74	-0.999776	0.122512	0.006	-0.247535	0	0.339848	0	0	0	0	0.71082	0	-0.282997	0	0	0
0.09	-71.1641	465.173	-4.11696	0.126261	0.006	-0.246561	0	0.502595	0	0	0	0	0.71082	0	-0.282997	0	0	0
0.1	-76.6572	496.406	-7.31153	0.129995	0.006	-0.245592	0	0.713341	0	0	0	0	0.71082	0	-0.282997	0	0	0
0.11	-80.814	523.187	-10.4458	0.13372	0.006	-0.244632	0	0.965649	0	0	0	0	0.71082	0	-0.282997	0	0	0
0.12	-83.6362	545.589	-13.4227	0.137445	0.006	-0.24368	0	1.24874	0	0	0	0	0.71082	0	-0.282997	0	0	0
0.13	-85.1942	563.892	-16.177	0.141177	0.006	-0.242738	0	1.54961	0	0	0	0	0.71082	0	-0.282997	0	0	0
0.14	-85.5912	578.473	-18.6718	0.144916	0.006	-0.241802	0	1.85369	0	0	0	0	0.71082	0	-0.282997	0	0	0
0.15	-84.9502	589.743	-20.8875	0.148659	0.006	-0.240873	0	2.14616	0	0	0	0	0.71082	0	-0.282997	0	0	0
0.16	-83.4152	598.115	-22.8103	0.152402	0.006	-0.239948	0	2.41303	0	0	0	0	0.71082	0	-0.282997	0	0	0
0.17	-81.1388	603.982	-24.4294	0.15614	0.006	-0.239029	0	2.64174	0	0	0	0	0.71082	0	-0.282997	0	0	0
0.18	-78.2724	607.705	-25.7323	0.159872	0.006	-0.238116	0	2.82193	0	0	0	0	0.71082	0	-0.282997	0	0	0
0.19	-74.9578	609.608	-26.7009	0.163599	0.006	-0.237215	0	2.94579	0	0	0	0	0.71082	0	-0.282997	0	0	0
0.2	-71.3209	609.988	-27.3135	0.167321	0.006	-0.236329	0	3.0079	0	0	0	0	0.71082	0	-0.282997	0	0	0
0.21	-67.4674	609.109	-27.5537	0.17104	0.006	-0.235465	0	3.00514	0	0	0	0	0.71082	0	-0.282997	0	0	0
0.22	-63.4837	607.211	-27.4235	0.174756	0.006	-0.23463	0	2.93672	0	0	0	0	0.71082	0	-0.282997	0	0	0
0.23	-59.4411	604.515	-26.953	0.17847	0.006	-0.233827	0	2.80444	0	0	0	0	0.71082	0	-0.282997	0	0	0
0.24	-55.401	601.226	-26.2036	0.182178	0.006	-0.233057	0	2.61308	0	0	0	0	0.71082	0	-0.282997	0	0	0
0.25	-51.4182	597.54	-25.2607	0.18588	0.006	-0.232319	0	2.37042	0	0	0	0	0.71082	0	-0.282997	0	0	0
0.26	-47.5407	593.642	-24.2188	0.18957	0.006	-0.231613	0	2.08672	0	0	0	0	0.71082	0	-0.282997	0	0	0
0.27	-43.8065	589.704	-23.1659	0.19324	0.006	-0.230935	0	1.77344	0	0	0	0	0.71082	0	-0.282997	0	0	0
0.28	-40.2394	585.886	-22.1703	0.196883	0.006	-0.230284	0	1.44175	0	0	0	0	0.71082	0	-0.282997	0	0	0
0.29	-36.8476	582.322	-21.2768	0.200487	0.006	-0.229663	0	1.10113	0	0	0	0	0.71082	0	-0.282997	0	0	0
0.3	-33.6227	579.119	-20.5077	0.204044	0.006	-0.229073	0	0.758624	0	0	0	0	0.71082	0	-0.282997	0	0	0
0.31	-30.5387	576.35	-19.8688	0.207543	0.006	-0.228516	0	0.418754	0	0	0	0	0.71082	0	-0.282997	0	0	0
0.32	-27.5528	574.067	-19.3578	0.210974	0.006	-0.227994	0	0.083983	0	0	0	0	0.71082	0	-0.282997	0	0	0
0.33	-24.6084	572.304	-18.9717	0.214327	0.006	-0.227511	0	-0.244611	0	0	0	0	0.71082	0	-0.282997	0	0	0
0.34	-21.6404	571.099	-18.7092	0.217591	0.006	-0.227066	0	-0.566682	0	0	0	0	0.71082	0	-0.282997	0	0	0
0.35	-18.5817	570.5	-18.5716	0.220757	0.006	-0.226662	0	-0.882184	0	0	0	0	0.71082	0	-0.282997	0	0	0
0.36	-15.3678	570.58	-18.5608	0.223817	0.006	-0.2263	0	-1.19116	0	0	0	0	0.71082	0	-0.282997	0	0	0
0.37	-11.9416	571.431	-18.6794	0.226764	0.006	-0.225981	0	-1.49354	0	0	0	0	0.71082	0	-0.282997	0	0	0
0.38	-8.25483	573.162	-18.9296	0.229592	0.006	-0.225706	0	-1.78881	0	0	0	0	0.71082	0	-0.282997	0	0	0
0.39	-4.26679	575.878	-19.3137	0.232301	0.006	-0.225475	0	-2.07584	0	0	0	0	0.71082	0	-0.282997	0	0	0
0.4	0.0576416	579.657	-19.8319	0.234893	0.006	-0.225289	0	-2.35281	0	0	0	0	0.71082	0	-0.282997	0	0	0
0.41	4.74975	584.527	-20.4816	0.237373	0.006	-0.225143	0	-2.61713	0	0	0	0	0.71082	0	-0.282997	0	0	0
0.42	9.83934	590.45	-21.2556	0.239752	0.006	-0.225034	0	-2.8654	0	0	0	0	0.71082	0	-0.282997	0	0	0
0.43	15.3555	597.323	-22.1405	0.242039	0.006	-0.224957	0	-3.09353	0	0	0	0	0.71082	0	-0.282997	0	0	0
0.44	21.3236	604.977	-23.1145	0.244244	0.006	-0.224906	0	-3.29679	0	0	0	0	0.71082	0	-0.282997	0	0	0
0.45	27.7597	613.187	-24.1465	0.246376	0.006	-0.224877	0	-3.47015	0	0	0	0	0.71082	0	-0.282997	0	0	0
0.46	34.6638	621.671	-25.1951	0.248446	0.006	-0.224866	0	-3.60871	0	0	0	0	0.71082	0	-0.282997	0	0	0
0.47	42.0146	630.094	-26.2083	0.250461	0.006	-0.22487	0	-3.70817	0	0	0	0	0.71082	0	-0.282997	0	0	0
0.48	49.7649	638.078	-27.1235	0.252427	0.006	-0.22489	0	-3.76515	0	0	0	0	0.71082	0	-0.282997	0	0	0
0.49	57.8372	645.202	-27.8694	0.254353	0.006	-0.224924	0	-3.77748	0	0	0	0	0.71082	0	-0.282997	0	0	0
0.5	66.1233	651.007	-28.3707	0.256244	0.006	-0.224971	0	-3.74417	0	0	0	0	0.71082	0	-0.282997	0	0	0
0.51	74.4868	655.005	-28.5552	0.258106	0.006	-0.225031	0	-3.66534	0	0	0	0	0.71082	0	-0.282997	0	0	0
0.52	82.765	656.69	-28.3603	0.259946	0.006	-0.225101	0	-3.54217	0	-0.966974	24.1035	-4.24781	0.716069	0.006	-0.28544	0	0.334307	0
0.53	90.7714	655.55	-27.739	0.261772	0.006	-0.225178	0	-3.377	0	-3.30426	42.538	-4.72316	0.748848	0.006	-0.300219	0	0.403712	0
0.54	98.2975	651.086	-26.6642	0.26359	0.006	-0.22526	0	-3.17325	0	-6.50898	65.3665	-5.20383	0.76523	0.006	-0.306993	0	0.430394	0
0.55	105.116	642.83	-25.1337	0.265408	0.006	-0.225341	0	-2.93541	0	-10.7099	92.741	-5.65565	0.775385	0.006	-0.310739	0	0.442442	0
0.56	110.985	630.367	-23.1721	0.267236	0.006	-0.225418	0	-2.66902	0	-16.0153	124.535	-6.03182	0.782589	0.006	-0.313039	0	0.449688	0
0.57	115.661	613.362	-20.8303	0.269083	0.006	-0.225486	0	-2.38072	0	-22.4964	160.238	-6.27102	0.788239	0.006	-0.314547	0	0.457037	0
